<svg width="288" height="191" viewBox="0 0 288 191" fill="none" xmlns="http://www.w3.org/2000/svg">
<path d="M174.5 145C174.5 184.812 164.703 220.784 148.943 246.752C133.166 272.748 111.575 288.5 88 288.5C64.4249 288.5 42.8337 272.748 27.0569 246.752C11.2967 220.784 1.5 184.812 1.5 145C1.5 105.188 11.2967 69.2163 27.0569 43.2478C42.8337 17.2519 64.4249 1.5 88 1.5C111.575 1.5 133.166 17.2519 148.943 43.2478C164.703 69.2163 174.5 105.188 174.5 145Z" stroke="white" stroke-width="3"/>
<path d="M230.5 145C230.5 184.812 220.703 220.784 204.943 246.752C189.166 272.748 167.575 288.5 144 288.5C120.425 288.5 98.8337 272.748 83.0569 246.752C67.2967 220.784 57.5 184.812 57.5 145C57.5 105.188 67.2967 69.2163 83.0569 43.2478C98.8337 17.2519 120.425 1.5 144 1.5C167.575 1.5 189.166 17.2519 204.943 43.2478C220.703 69.2163 230.5 105.188 230.5 145Z" stroke="white" stroke-width="3"/>
<path d="M286.5 145C286.5 184.812 276.703 220.784 260.943 246.752C245.166 272.748 223.575 288.5 200 288.5C176.425 288.5 154.834 272.748 139.057 246.752C123.297 220.784 113.5 184.812 113.5 145C113.5 105.188 123.297 69.2163 139.057 43.2478C154.834 17.2519 176.425 1.5 200 1.5C223.575 1.5 245.166 17.2519 260.943 43.2478C276.703 69.2163 286.5 105.188 286.5 145Z" stroke="white" stroke-width="3"/>
</svg>
